<?xml version="1.0" standalone="no"?>
<!DOCTYPE svg PUBLIC "-//W3C//DTD SVG 20010904//EN"
 "http://www.w3.org/TR/2001/REC-SVG-20010904/DTD/svg10.dtd">
<svg version="1.0" xmlns="http://www.w3.org/2000/svg"
 width="300.000000pt" height="179.000000pt" viewBox="0 0 300.000000 179.000000"
 preserveAspectRatio="xMidYMid meet">
<metadata>
Created by potrace 1.10, written by Peter Selinger 2001-2011
</metadata>
<g transform="translate(0.000000,179.000000) scale(0.100000,-0.100000)"
fill="#000000" stroke="none">
<path d="M1340 1735 c-52 -7 -124 -23 -160 -35 -171 -57 -322 -196 -346 -319
-6 -30 -6 -30 27 -21 108 28 498 45 702 31 88 -7 162 -9 166 -5 3 3 -7 16 -23
29 -28 22 -118 45 -179 45 -14 0 -29 5 -32 10 -4 6 24 10 77 11 116 1 68 12
-167 39 -104 11 -201 23 -215 26 -16 3 -21 2 -15 -4 11 -10 161 -46 233 -56
44 -7 92 -31 92 -47 0 -5 -75 -9 -167 -10 -93 0 -230 -6 -306 -13 -76 -6 -140
-9 -142 -5 -9 13 54 96 106 142 70 62 173 112 274 134 111 25 328 24 410 0 90
-27 214 -91 265 -136 l45 -40 -36 -1 c-23 0 -48 9 -70 25 -71 52 -135 74 -237
82 -144 12 -354 10 -375 -3 -15 -8 22 -13 153 -18 95 -4 208 -11 252 -17 87
-11 165 -44 186 -78 8 -14 22 -21 42 -21 41 0 130 -20 130 -30 0 -4 -22 -10
-50 -14 -113 -15 -163 -55 -190 -153 -11 -39 -20 -49 -67 -75 -50 -28 -73 -52
-73 -77 0 -7 46 -11 136 -11 128 0 139 2 205 30 39 16 75 29 81 27 14 -3 27
59 27 135 2 119 -65 223 -197 309 -159 104 -355 144 -562 114z m710 -335 c18
-34 23 -114 10 -154 -11 -35 -31 -49 -115 -81 -34 -12 -202 -18 -209 -7 -3 6
8 21 25 33 18 13 42 46 57 78 40 89 80 121 169 135 7 1 16 5 19 9 13 13 33 7
44 -13z"/>
<path d="M1200 1576 c-42 -11 -33 -13 145 -25 105 -7 208 -15 230 -18 27 -4
37 -2 30 5 -8 8 -335 55 -355 51 -3 0 -25 -6 -50 -13z"/>
<path d="M1820 1471 c0 -12 6 -21 16 -21 9 0 14 7 12 17 -5 25 -28 28 -28 4z"/>
<path d="M1050 1344 c-178 -17 -405 -59 -474 -88 -22 -9 -37 -18 -35 -20 2 -2
99 11 214 29 116 18 263 40 327 50 65 10 115 21 112 26 -5 9 -69 10 -144 3z"/>
<path d="M1642 1279 c-26 -23 -42 -29 -78 -29 -24 0 -55 7 -68 15 -23 15 -81
12 -92 -6 -6 -10 88 -39 125 -39 48 0 97 20 126 50 38 39 29 46 -13 9z"/>
<path d="M928 1247 c-48 -7 -90 -15 -94 -19 -4 -4 7 -37 25 -72 127 -258 578
-376 920 -240 110 43 236 139 272 205 8 16 6 19 -17 19 -19 0 -39 -13 -68 -45
-44 -48 -64 -58 -46 -25 11 20 8 20 -154 20 -161 0 -165 1 -168 21 -6 43 -25
45 -245 21 -114 -12 -249 -22 -299 -22 -105 0 -129 11 -119 53 10 40 22 42 40
7 19 -37 52 -40 103 -8 l35 22 -6 -23 c-4 -17 -2 -21 9 -17 7 3 57 13 109 22
52 10 95 21 95 25 0 4 -17 21 -37 36 -35 27 -42 28 -152 30 -64 1 -155 -4
-203 -10z m287 -27 c12 -19 -4 -25 -68 -26 -34 0 -77 -4 -95 -8 -32 -7 -62 5
-62 25 0 16 215 25 225 9z m362 -130 l34 -30 138 0 c107 0 141 -3 150 -14 16
-19 -30 -54 -119 -91 -160 -68 -307 -79 -513 -40 -106 20 -287 117 -287 153 0
5 51 10 113 11 61 1 180 10 262 20 83 10 158 19 169 20 10 0 34 -12 53 -29z"/>
<path d="M157 720 c-41 -12 -94 -56 -113 -92 -32 -61 -16 -157 32 -199 60 -52
155 -64 224 -29 22 11 40 16 40 10 0 -5 11 -17 24 -25 23 -15 27 -14 75 12 51
28 64 43 36 43 -27 0 -35 38 -35 159 0 132 1 131 -59 110 -25 -9 -40 -8 -71 5
-43 17 -107 20 -153 6z m0 -68 c-58 -61 -56 -134 6 -194 43 -41 33 -49 -28
-24 -40 17 -75 68 -75 109 0 45 26 95 62 117 49 30 67 26 35 -8z m245 -19 c0
-21 2 -49 3 -63 12 -141 12 -145 -16 -148 -35 -4 -54 20 -42 55 12 35 8 135
-6 162 -16 29 -14 31 24 31 33 0 35 -2 37 -37z m-107 5 c24 -11 25 -15 25 -88
0 -72 -2 -78 -22 -84 -38 -10 -78 -7 -107 9 -34 17 -41 33 -41 86 0 73 71 111
145 77z"/>
<path d="M1324 707 c-88 -42 -125 -111 -104 -196 22 -92 94 -135 224 -135 92
0 145 21 190 74 32 39 40 68 34 125 -11 94 -83 146 -213 152 -69 4 -87 1 -131
-20z m22 -50 c-18 -14 -43 -75 -41 -97 1 -8 3 -25 3 -37 1 -12 16 -38 33 -58
38 -43 31 -56 -18 -30 -46 25 -66 57 -69 109 -2 49 20 92 60 117 31 19 58 15
32 -4z m235 2 c16 -11 29 -26 29 -34 0 -7 4 -15 9 -17 9 -3 14 -34 12 -80 -1
-35 -43 -83 -83 -97 l-32 -11 21 22 c29 33 35 46 40 85 7 49 -3 77 -38 118
-30 33 -30 35 -9 35 12 0 35 -9 51 -21z m-95 -14 c41 -17 67 -68 59 -118 -13
-77 -118 -106 -176 -48 -23 24 -29 38 -29 74 0 66 30 98 98 106 7 0 28 -6 48
-14z"/>
<path d="M600 555 l0 -165 50 0 50 0 0 113 c0 171 -26 185 -34 19 -2 -41 -9
-79 -15 -85 -8 -8 -11 -4 -12 13 -1 14 -3 61 -5 105 -6 117 -2 125 49 125 23
0 47 -4 52 -8 10 -7 47 -112 40 -112 -2 0 -12 16 -21 35 -9 20 -25 40 -35 45
-14 8 -9 -13 27 -118 24 -70 44 -128 44 -130 0 -2 23 -2 51 0 l51 3 37 100
c21 55 41 113 45 130 7 29 7 29 -13 11 -21 -19 -21 -19 -21 0 0 11 5 25 12 32
13 13 96 16 115 4 7 -5 11 -45 10 -122 -2 -111 -3 -115 -24 -118 -26 -4 -30 8
-36 116 -3 40 -9 78 -15 84 -8 8 -12 -26 -14 -116 l-3 -126 65 0 65 0 -2 162
-2 163 -91 3 -91 3 -13 -33 c-8 -18 -26 -70 -42 -116 -15 -45 -30 -79 -34 -75
-3 5 -21 56 -40 116 l-34 107 -83 0 -83 0 0 -165z m228 -67 c10 -10 17 -10 33
0 12 8 23 11 26 8 10 -10 -23 -61 -41 -64 -22 -5 -46 22 -46 50 0 21 11 23 28
6z"/>
<path d="M1720 669 l0 -51 65 4 65 3 0 -122 0 -123 60 0 60 0 0 123 0 123 65
-4 65 -4 0 51 0 51 -190 0 -190 0 0 -51z m314 2 c3 -5 -5 -11 -19 -13 -16 -3
-22 -1 -18 6 3 6 -8 -2 -25 -18 -32 -29 -32 -31 -32 -123 0 -76 -3 -95 -16
-100 -26 -10 -39 15 -40 80 -1 34 -2 74 -3 90 -1 34 -33 67 -66 67 -14 0 -25
5 -25 10 0 13 237 14 244 1z"/>
<path d="M2205 711 c-3 -2 -5 -78 -5 -168 l0 -163 65 0 65 0 -2 167 -3 167
-58 1 c-31 1 -60 -1 -62 -4z m83 -164 l3 -127 -26 0 -25 0 0 123 c0 68 3 127
7 131 4 4 14 5 23 4 12 -3 15 -25 18 -131z"/>
<path d="M2523 696 c-125 -59 -144 -219 -34 -293 52 -35 132 -49 210 -35 55 9
70 9 89 -4 20 -13 25 -13 52 8 l31 22 -23 17 c-22 17 -22 18 -3 39 26 28 33
126 12 166 -36 69 -108 104 -216 104 -49 0 -80 -7 -118 -24z m231 -30 c75 -31
102 -107 67 -192 -13 -29 -20 -57 -18 -61 3 -4 -29 -9 -70 -10 l-74 -2 16 25
c9 14 13 29 9 35 -4 8 3 9 24 5 25 -6 33 -3 51 20 35 45 20 116 -35 168 -32
29 -21 33 30 12z m-208 -25 c-54 -56 -45 -157 18 -206 39 -30 32 -37 -19 -20
-105 37 -126 171 -36 232 50 34 71 30 37 -6z m138 -1 c47 -17 79 -95 60 -144
-5 -13 -11 -11 -40 10 l-34 26 -30 -26 -31 -25 31 -16 c42 -22 29 -35 -21 -22
-29 7 -47 19 -60 41 -57 93 25 195 125 156z"/>
<path d="M1417 293 c-4 -3 -7 -15 -7 -25 0 -13 7 -18 25 -18 20 0 25 5 25 25
0 18 -5 25 -18 25 -10 0 -22 -3 -25 -7z"/>
<path d="M448 253 c-7 -57 6 -151 24 -169 14 -15 18 -15 37 -2 19 13 20 17 6
28 -20 17 -20 86 0 94 8 3 15 10 15 16 0 5 -7 10 -15 10 -10 0 -15 10 -15 30
0 25 -4 30 -24 30 -20 0 -24 -6 -28 -37z"/>
<path d="M1300 260 c0 -16 -4 -30 -10 -30 -5 0 -10 -7 -10 -15 0 -8 5 -15 10
-15 6 0 10 -21 10 -47 1 -70 31 -103 61 -66 11 13 11 17 2 20 -15 5 -18 93 -3
93 6 0 10 7 10 15 0 8 -4 15 -10 15 -5 0 -10 14 -10 30 0 25 -4 30 -25 30 -21
0 -25 -5 -25 -30z"/>
<path d="M52 218 c-30 -33 -36 -70 -18 -106 18 -35 33 -41 98 -39 48 2 80 19
59 31 -6 4 -11 34 -11 68 0 55 -2 60 -20 55 -11 -3 -23 -1 -26 4 -10 17 -60 9
-82 -13z m83 -63 c0 -43 -22 -58 -50 -35 -32 27 -10 84 30 78 16 -2 20 -11 20
-43z"/>
<path d="M585 215 c-32 -31 -34 -91 -5 -123 31 -33 102 -31 129 4 47 60 10
144 -64 144 -25 0 -44 -8 -60 -25z m91 -39 c8 -33 2 -57 -18 -69 -24 -16 -48
8 -48 48 0 38 6 45 36 45 17 0 25 -7 30 -24z"/>
<path d="M845 230 c-3 -5 -19 -7 -35 -3 l-30 6 0 -82 c0 -78 1 -81 23 -81 21
0 22 4 22 57 0 56 1 58 28 61 27 3 27 3 27 -57 0 -59 1 -61 26 -61 25 0 25 2
23 58 -3 55 -2 57 24 60 27 3 27 3 27 -57 0 -58 1 -61 25 -61 24 0 25 2 25 69
0 50 -4 74 -16 85 -20 20 -53 20 -74 1 -15 -14 -18 -14 -30 0 -14 17 -56 20
-65 5z"/>
<path d="M1105 215 c-34 -33 -34 -93 -2 -123 33 -31 90 -30 122 3 54 53 16
145 -60 145 -25 0 -44 -8 -60 -25z m89 -31 c25 -65 -25 -113 -60 -59 -14 21
-15 31 -6 50 13 29 56 34 66 9z"/>
<path d="M1516 227 c-16 -12 -14 -18 19 -85 47 -95 63 -96 110 -2 41 81 42 86
16 93 -16 4 -24 -6 -43 -49 -13 -29 -25 -54 -29 -54 -3 0 -13 23 -23 50 -21
58 -27 64 -50 47z"/>
<path d="M1749 227 c-44 -34 -51 -96 -14 -133 21 -21 33 -25 73 -22 39 2 48 7
50 24 3 18 -2 20 -45 20 -34 -1 -48 3 -50 14 -3 12 7 14 57 12 36 -2 60 0 60
6 0 22 -21 66 -38 78 -21 17 -72 17 -93 1z m79 -47 c2 -11 -7 -15 -33 -15 -33
0 -44 12 -28 29 12 12 58 2 61 -14z"/>
<path d="M240 169 c0 -33 5 -69 10 -80 12 -21 50 -25 81 -9 13 7 19 7 19 0 0
-5 10 -10 23 -10 21 0 22 4 22 80 0 79 0 80 -25 80 -24 0 -25 -3 -25 -57 0
-56 -1 -58 -27 -61 -28 -3 -28 -3 -28 57 0 58 -1 61 -25 61 -24 0 -25 -3 -25
-61z"/>
<path d="M1415 150 c0 -76 1 -80 23 -80 21 0 22 4 22 80 0 76 -1 80 -22 80
-22 0 -23 -4 -23 -80z"/>
</g>
</svg>
